<?xml version="1.0" standalone="no"?>
<!DOCTYPE svg PUBLIC "-//W3C//DTD SVG 1.1//EN" "http://www.w3.org/Graphics/SVG/1.1/DTD/svg11.dtd" >
<svg>
<metadata>
Created by FontForge 20090914 at Thu Feb 23 17:26:36 2012
 By ffonts
Fantasy One - (10/1/98) Free for personal use.
</metadata>
<defs>
<font id="FantasyOne" horiz-adv-x="226" >
  <font-face 
    font-family="Fantasy One"
    font-weight="400"
    font-stretch="normal"
    units-per-em="1000"
    panose-1="0 0 4 0 0 0 0 0 0 0"
    ascent="800"
    descent="-200"
    x-height="467"
    cap-height="647"
    bbox="-54 -222 1076 802"
    underline-thickness="20"
    underline-position="-123"
    unicode-range="U+0020-U+201D"
  />
<missing-glyph horiz-adv-x="500" 
d="M63 0v800h375v-800h-375zM125 63h250v675h-250v-675z" />
    <glyph glyph-name=".notdef" horiz-adv-x="500" 
d="M63 0v800h375v-800h-375zM125 63h250v675h-250v-675z" />
    <glyph glyph-name=".null" horiz-adv-x="0" 
 />
    <glyph glyph-name="nonmarkingreturn" 
 />
    <glyph glyph-name="space" unicode=" " 
 />
    <glyph glyph-name="glyph4" 
 />
    <glyph glyph-name="glyph5" 
 />
    <glyph glyph-name="exclam" unicode="!" horiz-adv-x="239" 
d="M75 658l115 20q17 -40 17 -81q0 -11 -1 -17l-49 -297v-121h-38l-1 124v251q0 56 -27 95l-2 1q-10 15 -14 24v1zM198 67l-21 -67h-72l-22 65l57 43z" />
    <glyph glyph-name="quotedbl" unicode="&#x22;" horiz-adv-x="269" 
d="M174 332q-23 222 -23 270q0 58 36 58q30 0 30 -71q0 -54 -22 -257h-21zM78 332q-1 20 -14 135q-9 80 -9 136q0 57 36 57q31 0 31 -73q0 -50 -21 -255h-23z" />
    <glyph glyph-name="numbersign" unicode="#" horiz-adv-x="657" 
d="M420 266l48 137h-133l-47 -137h132zM348 442h132l60 174h47l-60 -174h129l-13 -39h-129l-47 -137h129l-14 -38h-129l-58 -173h-47l58 173h-132l-59 -173h-47l59 173h-126l13 38h127l48 137h-128l13 39h127l60 174h46z" />
    <glyph glyph-name="dollar" unicode="$" horiz-adv-x="394" 
d="M337 187q0 50 -96 154v-261q42 8 69 36.5t27 70.5zM214 474v133q-50 -7 -50 -53q0 -32 50 -80zM241 671v-41q73 -9 73 -100q0 -23 -9 -45l-8 3q1 21 1 25q0 61 -57 91v-154q74 -74 89 -93q47 -60 47 -115q0 -65 -37 -114.5t-99 -62.5v-48h-27v47q-47 5 -84 36
q-41 33 -41 78q0 16 26 59l26 43q0 14 -15 14q-38 0 -57 -56l-8 3q23 65 69 65q17 0 30.5 -15t13.5 -32q0 -15 -19 -54t-19 -51q0 -60 78 -76v290q-95 95 -95 146q0 46 25.5 79.5t69.5 36.5v41h27z" />
    <glyph glyph-name="percent" unicode="%" horiz-adv-x="763" 
d="M306 320q43 0 67 28.5t24 72.5q0 63 -42 115q-44 56 -106 56q-82 0 -82 -94q0 -60 39 -116q42 -62 100 -62zM431 458q0 -71 -41 -115t-111 -44q-63 0 -104 46t-41 110q0 63 39 113q42 55 103 55q69 0 112 -47.5t43 -117.5zM625 86q43 0 67 29t24 73q0 63 -42 115
q-44 56 -106 56q-82 0 -82 -95q0 -51 44 -112q46 -66 95 -66zM751 224q0 -70 -42.5 -114.5t-112.5 -44.5q-60 0 -102 49q-41 46 -41 107q0 60 41 112q43 56 102 56q69 0 112 -47.5t43 -117.5zM599 627l-282 -558h-20l283 558h19z" />
    <glyph glyph-name="ampersand" unicode="&#x26;" horiz-adv-x="803" 
d="M410 417q0 -25 42 -25q29 0 66 28q-23 25 -64 25q-44 0 -44 -28zM472 593q-34 -84 -94 -84q-20 0 -36 11t-16 30q0 12 7 34.5t7 34.5q0 31 -43 31q-32 0 -55.5 -24.5t-23.5 -56.5q0 -69 90 -94v-5q-103 -32 -103 -143q0 -98 53 -166q57 -75 152 -75q76 0 123 59
q44 54 44 132q0 36 -11 72q-13 44 -36 61q-46 -32 -78 -32q-21 0 -38 9q-20 11 -20 30q0 18 21 29q17 9 37 9q28 0 76 -25q46 69 53 77q39 47 72 47q19 0 55.5 -16t54.5 -16q26 0 26 27q0 9 -22 37l8 8q11 -4 20 -19.5t9 -28.5q0 -64 -74 -64q-14 0 -41 6t-41 6
q-32 0 -104 -74q74 -70 74 -157q0 -82 -71 -139q-66 -54 -150 -54q-108 0 -180 59q-78 63 -78 169q0 120 130 174q-64 38 -64 95q0 41 28 66.5t69 25.5q30 0 55 -17q29 -19 29 -47q0 -9 -5 -27.5t-5 -27.5q0 -16 16 -16q39 0 72 72z" />
    <glyph glyph-name="quotesingle" unicode="'" horiz-adv-x="192" 
d="M206 623q-61 -37 -148 -137q31 136 54 203l71 1z" />
    <glyph glyph-name="parenleft" unicode="(" horiz-adv-x="170" 
d="M158 768q-39 -100 -60 -269q-18 -144 -18 -275q0 -130 75 -349q-89 130 -116 218.5t-27 246.5q0 180 146 428z" />
    <glyph glyph-name="parenright" unicode=")" horiz-adv-x="170" 
d="M12 768q39 -100 60 -269q18 -144 18 -275q0 -130 -75 -349q89 130 116 218.5t27 246.5q0 180 -146 428z" />
    <glyph glyph-name="asterisk" unicode="*" horiz-adv-x="382" 
d="M343 650l-101 -47l69 -86l-99 49l-25 -108l-23 108l-100 -48l70 86l-100 48l111 -1l-24 108l68 -88l69 87l-26 -108h111z" />
    <glyph glyph-name="plus" unicode="+" horiz-adv-x="607" 
d="M386 547v-217h212v-50h-212v-219h-53v219h-213v50h213v217h53z" />
    <glyph glyph-name="comma" unicode="," horiz-adv-x="227" 
d="M206 43q-61 -37 -148 -137q31 136 54 203l71 1z" />
    <glyph glyph-name="hyphen" unicode="-" horiz-adv-x="364" 
d="M363 303q-22 -41 -67 -65t-94 -24q-16 0 -48 7t-48 7q-30 0 -61 -13q24 28 62.5 49t72.5 21q18 0 52 -6.5t52 -6.5q34 0 79 31z" />
    <glyph glyph-name="hyphen" unicode="&#x2010;" horiz-adv-x="364" 
d="M363 303q-22 -41 -67 -65t-94 -24q-16 0 -48 7t-48 7q-30 0 -61 -13q24 28 62.5 49t72.5 21q18 0 52 -6.5t52 -6.5q34 0 79 31z" />
    <glyph glyph-name="period" unicode="." horiz-adv-x="227" 
d="M139 109l55 -42l-22 -67h-71l-20 68z" />
    <glyph glyph-name="slash" unicode="/" horiz-adv-x="315" 
d="M337 721l-276 -749l-41 3l280 746h37z" />
    <glyph glyph-name="zero" unicode="0" horiz-adv-x="390" 
d="M170 471q-60 0 -91 -76q-23 -57 -23 -128q0 -72 37 -135q44 -74 111 -74q62 0 93 65q24 50 24 120q0 79 -36 147q-43 81 -115 81zM157 0q-57 0 -96 78q-33 66 -33 129q0 115 30 191q43 109 140 109q74 0 115 -74q34 -61 34 -141q0 -292 -190 -292z" />
    <glyph glyph-name="one" unicode="1" horiz-adv-x="265" 
d="M225 6l-4 -3l3 -3q-23 0 -69 -1t-69 -1q-33 0 -58 2l2 4l-1 5q11 2 23 2q17 0 35 -5v433q-44 -54 -63 -54q43 64 60 85q45 56 77 56q20 0 31 -7l-5 -17q-4 6 -31 6v-501q9 3 33 3q29 0 36 -4z" />
    <glyph glyph-name="two" unicode="2" horiz-adv-x="391" 
d="M379 119l-90 -186l-21 11l27 43q-7 8 -29 8q-41 0 -123 2.5t-123 2.5q20 45 74 124q67 98 85 132q40 75 40 132q0 36 -14 63q-17 33 -50 33q-72 0 -104 -134q-9 1 -9 14q0 67 42.5 115t108.5 48q43 0 70.5 -32t27.5 -76q0 -73 -89 -185l-134 -169l251 -7q19 -1 44 75z
" />
    <glyph glyph-name="three" unicode="3" horiz-adv-x="350" 
d="M317 158q0 -121 -82.5 -204t-203.5 -83h-54v1q0 6 25 8q249 20 249 253q0 57 -23 91q-21 31 -73 60q-39 -30 -68 -35q2 8 36 33q44 32 60 50q32 36 32 72q0 23 -13 45q-15 26 -36 26q-40 0 -64 -31t-24 -72q0 -6 1 -12q-15 5 -15 15q0 58 39 94.5t97 36.5q31 0 56.5 -18
t25.5 -48q0 -28 -19 -60.5t-43 -48.5q97 -68 97 -173z" />
    <glyph glyph-name="four" unicode="4" horiz-adv-x="394" 
d="M198 161q9 14 9 46l-1 -17v67q23 3 66 18v-100l8 -11q18 3 44 3q25 0 58 -3q3 16 3 34q0 17 -3 37h23v-148q-11 46 -43 58q-16 6 -76 6q-9 0 -14 -8v-122h71q-7 -21 -14 -21h-193l-6 16q9 6 21 6q6 0 31 -2v0l23 1v114l-10 11l-171 -21q89 154 123 230q62 140 62 249
q0 20 -3 40q29 -5 53 -43q22 -34 22 -66q0 -76 -89 -204q-10 -14 -142 -182q5 -3 15 -3q5 0 133 15zM61 146q80 12 137 15zM77 147q20 1 53 6z" />
    <glyph glyph-name="five" unicode="5" horiz-adv-x="344" 
d="M344 506q-10 -27 -81 -51q-62 -21 -99 -21q-14 0 -42.5 1t-42.5 1q-5 0 -5 -10q0 -22 4 -62q227 0 227 -182q0 -109 -103 -206q-95 -89 -208 -112q106 35 170 102q74 77 74 180q0 61 -40 106.5t-100 45.5q-23 0 -23 -18q0 -4 1 -11.5t1 -11.5q0 -12 -4 -21l-17 5v251
l12 10q23 -9 164 -9q80 0 112 13z" />
    <glyph glyph-name="six" unicode="6" horiz-adv-x="391" 
d="M363 645q-84 -45 -134 -93q-55 -53 -94 -133q-48 -98 -48 -184q0 -70 37 -132q43 -72 108 -72q35 0 61 31t26 67q0 59 -28 94q-31 39 -88 39q-18 0 -36.5 -15.5t-22.5 -33.5q-8 11 -8 22q0 37 26 61t63 24q56 0 88 -53q28 -45 28 -105q0 -72 -38 -118q-40 -49 -111 -49
q-78 0 -125 69q-42 61 -42 142q0 164 90 281.5t248 157.5z" />
    <glyph glyph-name="seven" unicode="7" horiz-adv-x="375" 
d="M396 475q-116 -166 -171 -293q-70 -161 -70 -309v-20q-61 71 -61 125q0 106 88 239q24 36 161 208h-263l-2 -4q3 -20 6 -59q-14 10 -36 78q-20 62 -20 86v2q7 -4 15 -18.5t14 -18.5h333q6 -4 6 -16z" />
    <glyph glyph-name="eight" unicode="8" horiz-adv-x="360" 
d="M284 189q0 48 -30 100t-71 80q-135 -121 -135 -211q0 -45 29.5 -75t74.5 -30q57 0 94.5 39.5t37.5 96.5zM248 506q0 35 -21 62t-55 27q-30 0 -50.5 -19.5t-20.5 -49.5q0 -39 30 -73q8 -9 57 -58q33 33 43 49q17 27 17 62zM346 149q0 -70 -46 -114t-116 -44
q-69 0 -111.5 43t-42.5 112q0 67 46 132q24 34 96 106q-93 78 -93 149q0 47 30 77t77 30q49 0 77.5 -30t28.5 -79q0 -40 -30 -83q-26 -38 -63 -64q55 -46 96 -105q51 -73 51 -130z" />
    <glyph glyph-name="nine" unicode="9" horiz-adv-x="380" 
d="M331 282q0 -148 -85 -269q-89 -128 -229 -160l-20 7q151 45 226 197q50 101 50 198q0 64 -27 118q-33 67 -91 67q-39 0 -69.5 -31.5t-30.5 -70.5q0 -34 25 -67q26 -36 59 -36q46 0 84 36v-21q0 -28 -27 -50t-56 -22q-51 0 -79 47q-24 39 -24 93q0 79 39 127q42 53 119 53
q18 0 55 -25q81 -55 81 -191z" />
    <glyph glyph-name="colon" unicode=":" horiz-adv-x="214" 
d="M134 109l55 -42l-22 -67h-71l-20 68zM137 369l56 -42l-23 -67l-70 1l-21 67z" />
    <glyph glyph-name="semicolon" unicode=";" horiz-adv-x="234" 
d="M205 43q-61 -37 -148 -137q32 136 54 203l71 1zM180 261l-71 1l-20 68l57 40l57 -42z" />
    <glyph glyph-name="less" unicode="&#x3c;" horiz-adv-x="292" 
d="M272 27l-256 317l250 210l-159 -225z" />
    <glyph glyph-name="equal" unicode="=" horiz-adv-x="366" 
d="M365 366q-22 -40 -67.5 -64t-93.5 -24q-16 0 -48 6.5t-48 6.5q-30 0 -62 -12q24 28 62.5 49t72.5 21q18 0 52.5 -7t52.5 -7q34 0 79 31zM362 262q-22 -40 -68 -64t-94 -24q-16 0 -47.5 6.5t-47.5 6.5q-31 0 -62 -12q24 28 62.5 49t72.5 21q18 0 52 -6.5t52 -6.5
q34 0 80 30z" />
    <glyph glyph-name="greater" unicode="&#x3e;" horiz-adv-x="280" 
d="M272 344l-256 -317l165 302l-159 225z" />
    <glyph glyph-name="question" unicode="?" horiz-adv-x="326" 
d="M328 505q0 -62 -19 -96l-49 -88q-8 -14 -31.5 -39.5t-31.5 -42.5q-9 -20 -9 -44q0 -7 1 -15l-100 -28q13 25 42 73q18 18 42 46q92 107 92 220q0 45 -27 80q-29 39 -72 39q-39 0 -70 -21q-36 -23 -36 -60q0 -98 103 -98q22 0 50 21q-12 -68 -93 -68q-39 0 -71.5 31
t-32.5 70q0 170 152 170q67 0 113.5 -42t46.5 -108zM177 0l-71 1l-21 68l58 40l57 -42z" />
    <glyph glyph-name="at" unicode="@" horiz-adv-x="787" 
d="M401 147q54 0 90 70q30 59 30 119q0 23 -16.5 40t-39.5 17q-50 0 -85 -70q-30 -60 -30 -115q0 -24 14 -42.5t37 -18.5zM286 219q0 82 42 145q47 72 126 72q70 0 86 -73l18 61h58l-34 -112q-23 -76 -23 -116t45 -40q58 0 91 61q27 49 27 113q0 107 -75 165q-69 54 -178 54
q-140 0 -216 -78.5t-76 -219.5q0 -124 80 -197q77 -72 202 -72q114 0 236 76l18 -28q-128 -84 -263 -84q-139 0 -228 82q-92 84 -92 222q0 151 102 242q98 89 250 89q117 0 193 -63q82 -67 82 -182q0 -86 -41 -151q-47 -76 -128 -76q-67 0 -84 65q-47 -67 -110 -67
q-51 0 -79.5 30.5t-28.5 81.5z" />
    <glyph glyph-name="A" unicode="A" horiz-adv-x="593" 
d="M129 401h320v-28h-320v28zM597 651h-218q-159 0 -247.5 -90.5t-88.5 -250.5q0 -59 43 -135q35 -63 86 -117q-18 -23 -47 -31q-11 -3 -56 -8q20 -11 139 -11h-2q4 1 7 1h47q-65 37 -102 110q-35 69 -35 148q0 160 76 258q84 109 239 109q9 0 14 -8v-601l-65 -6l7 -15
q23 0 69 -2t69 -2q5 0 49 1l-5 8q2 2 7 4q-7 5 -59 8v611q15 3 33 3q19 0 40 -3v19z" />
    <glyph glyph-name="B" unicode="B" horiz-adv-x="607" 
d="M363 440q0 65 -28 117q-33 63 -93 63h-72l-2 -162q0 -2 2 -39q49 -1 170 -62q1 13 12 40.5t11 42.5zM575 52q0 -98 -76 -160q-70 -58 -171 -58q-58 0 -120 31q-66 33 -90 81q15 -26 82 -57q63 -30 97 -30q92 0 140 57q45 53 45 147q0 261 -318 338v-386h25q25 0 50 1
q0 -9 -6 -18l-208 2l-10 17q21 -1 54 -1h14q3 6 12 606h-64l-10 17q37 0 110.5 1.5t110.5 1.5q202 0 202 -139q0 -57 -22 -88q-17 -24 -72 -56q102 -65 154 -126q71 -84 71 -181z" />
    <glyph glyph-name="C" unicode="C" horiz-adv-x="519" 
d="M556 -49q-20 -30 -112 -30q-184 0 -299 101q-122 106 -122 287q0 166 131 265q115 88 288 99l-17 31q52 -12 118 -170q-10 4 -42 33q-39 35 -58 46q-30 17 -72 17q-121 0 -194 -100q-66 -89 -66 -215q0 -177 95 -274.5t271 -97.5q33 0 79 8z" />
    <glyph glyph-name="D" unicode="D" horiz-adv-x="585" 
d="M453 326q0 118 -60 205q-68 99 -181 99h-40v-607q28 -1 35 -1q121 0 187 95q59 83 59 209zM541 317q0 -158 -135 -244q-115 -73 -282 -73h-92l-10 17q13 3 31 3t42 -3v610q-10 4 -69 4l5 21h190q150 0 236 -94q84 -90 84 -241z" />
    <glyph glyph-name="E" unicode="E" horiz-adv-x="609" 
d="M644 130q0 -12 -138 -213l-11 5q25 37 44 75l-483 3q-13 7 -15 17q7 3 23 3q18 0 46 -3v601q-7 11 -23 11q-7 0 -20 -1.5t-20 -1.5q-13 0 -22 4l-5 17h427q-13 15 -13 24v12q31 -14 87 -126l-11 -6q-68 75 -188 75h-59q-42 0 -74 4l-8 -8v-116h288q-6 12 -23 29l6 11
l96 -138l-8 -11q-97 88 -132 88h-226v-463l247 -4h1q77 0 209 127q5 -4 5 -15z" />
    <glyph glyph-name="F" unicode="F" horiz-adv-x="516" 
d="M543 412l-7 -16q-85 84 -111 84h-242v-460l10 -7h6q39 0 44 -13h-188q-14 7 -15 17q6 3 23 3t45 -3v601q-14 7 -42 8q-31 1 -42 4q-5 8 -6 17l428 -1q-17 19 -17 45q71 -73 100 -153q-21 11 -60 40.5t-62 40.5q-12 6 -135 6h-87v-122h274q-6 11 -18 31l7 16
q25 -21 95 -138z" />
    <glyph glyph-name="G" unicode="G" horiz-adv-x="621" 
d="M593 5q-28 0 -84.5 -2.5t-84.5 -2.5q-163 0 -272 79q-124 88 -124 245q0 15 23 84q33 98 164 172q121 68 233 68q3 2 3 6q0 7 -7 19.5t-8 17.5q19 -14 60 -76l56 -88l-6 -20q-55 58 -69 70q-47 40 -84 40q-125 0 -200 -83q-73 -79 -73 -206t67 -212q73 -94 196 -94h62
v379h1q-8 -1 -55 -1q-16 0 -28 2v5q0 16 11 16q43 0 102 -1l59 -1q20 0 43 1v-20q-9 -4 -24 -4t-37 4v-372l12 -12l34 1h3q25 0 27 -14z" />
    <glyph glyph-name="H" unicode="H" horiz-adv-x="577" 
d="M144 13q11 4 26 4q23 0 32 -10zM201 638v-7q-12 -10 -21 -10q-5 0 -14 2.5t-14 2.5zM570 1q-109 -3 -143 -3t-44 3l5 15q12 2 21 2q15 0 24 -5q7 5 7 16v430q-5 2 -57 2q-38 0 -115 -1.5t-115 -1.5v-430q0 -11 7 -16q8 4 24 4q9 0 21 -2l5 -14q-10 -3 -44 -3t-143 3l7 16
h53v601q-6 7 -17 7q-5 0 -31 -4l-7 16l148 5h3q20 0 31 -9q-3 -11 -28 -11q-12 0 -30 3v-142l289 2v142q-7 -2 -19 -2q-36 0 -39 9q9 8 43 8q23 0 69.5 -1.5t69.5 -1.5l-4 -17q-12 6 -27 6q-16 0 -24 -9v-600h53z" />
    <glyph glyph-name="I" unicode="I" horiz-adv-x="251" 
d="M210 6q-16 -6 -166 -6h-22l-5 13q13 3 27 3q15 0 30 -3v614q-5 1 -14 1q-13 0 -33 -2l-10 16q46 5 101 5q9 0 86 -1l-10 -17q-4 0 -12 2t-12 2q-16 0 -26 -10q4 -31 4 -100v-502q13 -5 38 -5q9 0 19 1z" />
    <glyph glyph-name="J" unicode="J" horiz-adv-x="296" 
d="M304 630q-11 0 -63 -4l-5 1q-2 -2 -2 -6v-293q0 -28 -4 -83.5t-4 -83.5q0 -124 -78 -222q-82 -105 -202 -113q84 15 144 98q58 78 60 166l12 536h-13q-12 0 -41 2l-8 10q27 0 79.5 2t79.5 2q8 0 22.5 -1.5t22.5 -1.5l-1 -7z" />
    <glyph glyph-name="K" unicode="K" horiz-adv-x="596" 
d="M562 64q0 -61 -25.5 -133.5t-63.5 -119.5q5 27 34 92q24 54 24 108q0 197 -249 434q-53 -40 -76 -62q-49 -47 -49 -77q0 -49 2 -146.5t2 -146.5q7 0 22 1t22 1q6 0 17 -3q-1 -17 -12 -17q-30 0 -90.5 3t-90.5 3q1 7 5 17q29 0 51 6l-1 108q0 107 7 493q-37 0 -64 6l1 19
l180 -3l10 -16q-11 -4 -26 -4q-13 0 -28 3v-265l262 265q-31 -3 -40 -3q-29 0 -40 15l138 -4q5 3 13 3q33 0 47 -15q-11 2 -22 2q-52 0 -106 -45q-6 -5 -83 -83q229 -226 229 -436z" />
    <glyph glyph-name="L" unicode="L" horiz-adv-x="538" 
d="M573 144q-11 -80 -35 -117l-66 -102l-21 2q28 41 37 72l-457 1l-3 11q36 4 55 5l-3 615q-4 2 -13 2q-12 0 -34 -3l-10 16q46 5 101 5q9 0 86 -1l-10 -17q-4 0 -12 2t-12 2q-17 0 -26 -10q0 -68 -13 -222q-11 -130 -11 -221v-24q0 -143 41 -143q30 0 91 -2t91 -2
q148 0 224 131z" />
    <glyph glyph-name="M" unicode="M" horiz-adv-x="822" 
d="M795 9q-1 -9 -15 -9q-31 0 -93 -1t-93 -1q-4 11 -4 14q0 5 7 7q6 0 17 -1l11 -1q12 0 31 1l-150 561l-120 -293l-124 267l-80 -245q-79 -242 -79 -292l1 -6q17 3 36 3q25 0 53 -4l-5 -16q-21 6 -75 6q-13 0 -78 -2q-12 7 -14 18q12 -7 23 -7q42 0 64 99q7 34 33 133
q2 7 59 177q42 127 42 165q0 28 -26 39q-5 2 -50 11q11 7 66 8q60 1 75 6q26 -43 55 -113q36 -87 51 -114l82 194q-4 6 -17.5 12.5t-17.5 10.5q73 2 120 2q48 0 57 -2q-2 -16 -22 -16q-6 0 -18.5 2t-18.5 2l-3 -11l160 -599z" />
    <glyph glyph-name="N" unicode="N" horiz-adv-x="614" 
d="M611 646l-2 -8q-21 -3 -61 -12l-1 -612q14 -4 50 -4l3 -5q0 -6 -69 -6q-60 0 -77 3v14l73 3v117l-414 448v-570q5 -4 12 -4q9 0 28 1.5t28 1.5h7q1 -7 1 -10l-142 -4l-24 1l-2 9q29 3 45 3q13 0 18 -2l8 16l4 560q0 24 -28 32q-4 1 -46 6l-6 16q6 3 20 3h2l128 -2
l366 -382v353q0 6 -4.5 14t-9.5 8l-55 1l-1 11q26 -1 63 -1q38 0 86 1z" />
    <glyph glyph-name="O" unicode="O" horiz-adv-x="699" 
d="M589 275q0 106 -71 219q-79 125 -178 125q-106 0 -170 -52q-70 -56 -70 -159q0 -146 71 -259q82 -130 220 -130q95 0 150 84q48 72 48 172zM664 319q0 -130 -82 -225q-85 -101 -213 -101q-156 0 -250 90t-94 245q0 142 80 228q82 90 222 90q154 0 245.5 -87t91.5 -240z
" />
    <glyph glyph-name="P" unicode="P" horiz-adv-x="577" 
d="M555 379q0 -111 -88 -182q-82 -67 -195 -67l-73 7q267 23 267 247q0 113 -68 177.5t-182 64.5q-14 0 -42 -2v-606q12 -3 26 -3q15 0 34 4v-21h-199v4q0 18 15 18q6 0 18 -2.5t18 -2.5q16 0 16 102v3q-1 10 -1 30v32l5 438q-19 3 -42 3q-22 0 -47 -3l5 21h232
q120 0 207 -70q94 -75 94 -192z" />
    <glyph glyph-name="Q" unicode="Q" horiz-adv-x="718" 
d="M588 284q0 114 -68 218q-77 117 -185 117q-106 0 -169 -86q-57 -77 -57 -187q0 -90 47 -194q56 -124 133 -124q36 0 80 69q42 66 42 105q0 28 -18.5 49.5t-46.5 21.5q-36 0 -51 -56q-7 -25 -14 -29l-4 42q0 22 31 43.5t54 21.5q38 0 68 -26t30 -63q0 -48 -57 -101
l-90 -84q27 -6 53 -6q111 0 170 82q52 72 52 187zM668 308q0 -145 -81 -230t-225 -85q-9 0 -28 2t-28 2q-20 0 -20 -17q0 -36 17 -49.5t54 -13.5q33 0 134.5 66.5t116.5 66.5q52 0 52 -42q0 -45 -70 -64q1 7 11 25.5t10 25.5q0 29 -29 29q-24 0 -61 -31q-64 -53 -71 -58
q-46 -31 -90 -31q-87 0 -87 70q0 13 3 29q-99 28 -171 112q-76 87 -76 187q0 144 84 237q87 98 229 98q154 0 240 -87.5t86 -241.5z" />
    <glyph glyph-name="R" unicode="R" horiz-adv-x="684" 
d="M508 475q0 -37 -30 -72t-67 -47q26 44 26 77q0 84 -52.5 133t-137.5 49h-60l5 -601q27 -1 37 -3q26 -5 30 -17q-4 -2 -54 -2h-29l-46 1h-75q1 14 62 21v604l-6 -1q-15 0 -72 8l264 8q63 0 129 -45q76 -52 76 -113zM658 3q-43 -24 -66 -24q-61 0 -97 46q-34 43 -34 105
q0 13 5 39.5t5 39.5q0 87 -103 132l-167 73h24q35 0 184 -74q54 -27 110 -83q31 -31 31 -76q0 -10 -1.5 -30.5t-1.5 -30.5q0 -52 7 -75q13 -43 52 -43q10 0 51 15z" />
    <glyph glyph-name="S" unicode="S" horiz-adv-x="641" 
d="M634 202q0 -114 -90 -174q-78 -53 -197 -53q-23 0 -67.5 11t-67.5 11q-11 0 -19 -1l-21 -19q18 -28 18 -51l-2 -13l-149 278l21 6q34 -98 129 -153q87 -51 196 -51q79 0 142 43q72 48 72 123q0 94 -109 143l-128 58q-181 83 -181 173q0 53 51 83q43 26 100 26
q34 0 85 -16l45 -14q1 -1 1 -2v0q7 2 29 25q-13 24 -15 41h3q19 0 63 -96l46 -102q-33 22 -82 68q-41 39 -69 52q-43 21 -110 21q-94 0 -94 -46q0 -47 104 -98q168 -82 192 -99q104 -73 104 -174z" />
    <glyph glyph-name="T" unicode="T" horiz-adv-x="674" 
d="M696 482q-33 33 -92 78q-72 55 -97 55h-115v-607q17 -3 40 -3t51 3l-4 -22l-235 8q6 14 25 14q9 0 25.5 -1t25.5 -1v613l-43 1q-89 0 -177 -64q-14 -10 -53 -70l-21 6l116 194q17 -3 17 -13q0 -8 -8.5 -20t-9.5 -17l450 5q-1 4 -7.5 14t-6.5 17l2 10z" />
    <glyph glyph-name="U" unicode="U" horiz-adv-x="637" 
d="M597 0h-218q-159 0 -247.5 90.5t-88.5 250.5q0 59 43 135q35 63 86 117q-18 23 -47 31q-11 3 -56 8q20 11 87 11h102q3 0 5 -1h-3q-65 -37 -102 -110q-35 -69 -35 -148q0 -160 76 -258q84 -109 239 -109q9 0 14 8v601l-65 6l7 15q23 0 69 2t69 2q5 0 49 -1l-5 -8
q2 -2 7 -4q-7 -5 -59 -8v-611q15 -3 33 -3q19 0 40 3v-19z" />
    <glyph glyph-name="V" unicode="V" horiz-adv-x="770" 
d="M825 650q-2 -5 -2 -9v-3l-83 -8l-283 -596l4 -9q16 -9 31 -9q11 0 22 5l9 -17q-62 0 -185 -5l-5 17h4q14 0 40 8l-135 300l-137 298q-5 10 -36 10h-1q-35 0 -37 15h221q-1 -4 -31.5 -12t-34.5 -12l256 -562l272 574q-14 0 -64 4l2 13h24q80 0 149 -2z" />
    <glyph glyph-name="W" unicode="W" horiz-adv-x="1004" 
d="M1076 647q-2 -5 -2 -9v-3l-83 -8l-279 -605q16 -9 31 -9q11 0 22 5l10 -17q-62 0 -186 -5l-4 17q15 0 44 8l-94 201l-89 -188l3 -9q16 -9 31 -9q11 0 22 5l10 -17q-62 0 -185 -5l-5 17h5q13 0 39 8l-273 598l-39 10q-32 9 -34 15h221q-2 -4 -32 -12t-34 -12l255 -562
l91 192q-55 130 -165 366q-27 6 -40 10q-31 9 -34 15h221q-1 -4 -31.5 -12t-34.5 -12l127 -278l139 293q-14 0 -65 4l3 13h24q80 0 149 -2l-2 -12l-83 -8l-151 -318l115 -254l272 574q-14 0 -64 4l2 13h25q80 0 148 -2z" />
    <glyph glyph-name="X" unicode="X" horiz-adv-x="744" 
d="M735 13v-6q0 -12 -10 -12v0l-239 5q0 17 30 18l-15 -1q8 -1 57 -1l-216 330l-220 -334q16 3 35 3q20 0 41 -3l1 -12h-174l5 12q15 -1 18 -1q59 0 121 104l81 133q13 21 77 118q-65 120 -72 132q-44 75 -89 121q-8 8 -40 8q-28 0 -42 -5l-5 21l230 4q-2 -5 -55 -19
l120 -193l126 193q-13 0 -64 5q26 10 43 10h4l23 -1l107 -3q-4 -10 -34 -10l1 -1q1 0 1 1q-1 1 -4 1h-51l-141 -215l267 -402h83z" />
    <glyph glyph-name="Y" unicode="Y" horiz-adv-x="686" 
d="M735 642l-5 -12q-15 1 -18 1q-60 0 -124 -93l-96 -140l-46 -63q6 -188 6 -272q0 -31 -1 -48q30 -3 48 -3h8l6 -12q-18 -5 -188 -5l-5 12q13 3 27 3q15 0 30 -3l2 261l-271 361q-51 1 -83 1v3q2 7 10 14l239 -5q0 -18 -33 -18q-7 0 -19.5 1.5t-19.5 1.5l219 -290l217 293
q-16 -3 -35 -3q-20 0 -41 3l-1 12h174z" />
    <glyph glyph-name="Z" unicode="Z" horiz-adv-x="573" 
d="M584 204l-115 -275h-4q-13 0 -13 11q0 4 27 57l-452 3q-6 4 -6 15q0 13 10 63q41 203 145 329q90 109 285 221l-229 3q-60 0 -108 -43q-11 -10 -80 -95q-5 4 -5 16q0 9 42.5 92t53.5 97v-14l-8 -36h400q-156 -113 -277 -280q-97 -134 -198 -342q174 -6 279 -6
q82 0 149 58q28 24 104 126z" />
    <glyph glyph-name="bracketleft" unicode="[" horiz-adv-x="245" 
d="M237 576h-77v-654h77v-35h-142v723h142v-34z" />
    <glyph glyph-name="backslash" unicode="\" horiz-adv-x="415" 
d="M396 75l-286 556h24l285 -556h-23z" />
    <glyph glyph-name="bracketright" unicode="]" horiz-adv-x="295" 
d="M240 610v-723h-143v35h77v654h-77v34h143z" />
    <glyph glyph-name="asciicircum" unicode="^" horiz-adv-x="334" 
d="M239 802l95 -142h-33l-91 93l-90 -93h-34l95 142h58z" />
    <glyph glyph-name="underscore" unicode="_" horiz-adv-x="509" 
d="M111 -156v32h459v-32h-459z" />
    <glyph glyph-name="grave" unicode="`" horiz-adv-x="237" 
d="M206 486q-87 100 -148 137l23 67l71 -1q23 -67 54 -203z" />
    <glyph glyph-name="a" unicode="a" horiz-adv-x="437" 
d="M307 41v310q-82 -28 -143 -82q-74 -66 -74 -140q0 -46 35.5 -76.5t82.5 -30.5q33 0 99 19zM432 11q-38 -11 -107 -11q-4 0 -14 10.5t-12 11.5q-22 0 -63.5 -13t-63.5 -13q-149 0 -149 124q0 90 102 162q74 52 183 86q1 14 1 16q0 32 -34 54q-30 20 -63 20t-91 -43
q-54 -39 -75 -72l42 91q26 51 56 81q-7 -16 -19 -49q19 0 55.5 5t55.5 5q47 0 90 -31q48 -33 48 -78v-342q2 -3 15 -3q36 0 43 -11z" />
    <glyph glyph-name="b" unicode="b" horiz-adv-x="415" 
d="M399 238q0 -100 -59 -167q-61 -71 -160 -71q-5 0 -161 6q7 9 52 11v579q-15 -5 -43 -12l-11 5l155 77l-40 -91l9 -560q82 5 131 67q47 58 47 142q0 82 -49 149q-46 62 -124 97h24q105 0 167 -63.5t62 -168.5z" />
    <glyph glyph-name="c" unicode="c" horiz-adv-x="381" 
d="M363 11q-93 -20 -111 -20q-108 0 -169.5 64.5t-61.5 173.5q0 110 75 180q72 68 183 70l-18 22h21l72 -140q-19 7 -60 48q-35 35 -73 35q-67 0 -103 -59q-30 -49 -30 -121q0 -95 53 -170q58 -85 149 -85q12 0 36.5 1t36.5 1z" />
    <glyph glyph-name="d" unicode="d" horiz-adv-x="417" 
d="M283 14v439h-21q-74 0 -121 -70q-42 -61 -42 -139q0 -94 44 -157q50 -73 140 -73zM410 7q-16 -12 -92 -12q-127 0 -204 53q-90 61 -90 183q0 106 78 171q72 61 180 64q5 56 5 91q0 19 -6 34l-57 -26q25 31 155 87q-31 -39 -31 -58v-585q10 2 24 2q18 0 38 -4z" />
    <glyph glyph-name="e" unicode="e" horiz-adv-x="423" 
d="M292 376q0 26 -19.5 49.5t-44.5 23.5q-65 0 -100 -52q-31 -45 -31 -113q0 -16 5 -48.5t5 -48.5q46 31 107 89q78 74 78 100zM421 443l-306 -281q12 -56 64 -103q54 -50 109 -50q22 0 111 25q-41 -43 -135 -43q-111 0 -174.5 61t-63.5 172q0 99 57 170q61 77 158 77
q76 0 136 -44q14 7 44 16z" />
    <glyph glyph-name="f" unicode="f" horiz-adv-x="356" 
d="M381 643q-38 -82 -94 -141q-5 72 -8 82q-13 43 -60 43q-22 0 -44.5 -21t-22.5 -43v-110q20 3 35 3q5 0 15.5 -2t15.5 -2q13 0 47 37l12 -7l-83 -118q-1 4 -1 9q0 7 2.5 20.5t2.5 20.5q0 21 -14 25q-4 1 -32 1v-389q0 -173 -90 -260q24 62 24 101v552q-14 -2 -30 -2
q-29 0 -59 7q31 9 68 9q11 0 21 -1l-1 42q0 68 41.5 106.5t110.5 38.5q21 0 54 -12q24 -9 54 -19q25 30 34 30h2z" />
    <glyph glyph-name="g" unicode="g" horiz-adv-x="429" 
d="M421 411q-5 -4 -12 -4q-8 0 -42 16l-2 -358q-2 -283 -203 -283q-50 0 -89 29q-43 31 -43 80q0 22 25 64q21 35 24 35v-1q-1 7 -8.5 22t-7.5 24l113 -163q-49 35 -57 35q-16 0 -34.5 -15t-18.5 -30q0 -62 82 -62q8 0 24.5 4.5t24.5 4.5q10 0 10 -8q0 -2 -1 -5q37 30 64 82
t27 98v408q-28 32 -44 43q-25 17 -58 17q-102 0 -102 -155q0 -76 27 -142q31 -76 88 -112q29 -18 64 -43q-102 23 -173 97q-77 79 -77 180q0 74 41 134q45 68 116 68q36 0 64 -19q38 -26 53 -33l1 9q0 9 -43 61z" />
    <glyph glyph-name="h" unicode="h" horiz-adv-x="456" 
d="M414 222q0 -83 -41 -175q-38 -86 -98 -153q35 88 46 127q17 63 17 135q0 98 -27 175q-38 109 -117 109q-18 0 -43 -17v-411q21 -2 27 -4q16 -5 18 -16l-168 4q1 12 23 13l-7 -1h39v570q-37 -25 -48 -25h-3q45 48 150 95q-25 -42 -32 -96q-3 -23 -3 -102q0 -6 9 -6
q10 0 29 9t29 9q88 0 146 -78q54 -71 54 -162z" />
    <glyph glyph-name="i" unicode="i" horiz-adv-x="238" 
d="M196 7l-2 -7q-23 -4 -102 -4h-30l-28 1l8 9q13 0 41 2l1 384q0 8 -8 8q-6 0 -44 -19q19 24 69 49l79 40q-33 -39 -33 -54v-400q5 -9 49 -9zM152 598q0 -17 -11.5 -29.5t-28.5 -12.5q-14 0 -29.5 13t-15.5 27q0 19 13 31.5t32 12.5q17 0 28.5 -12.5t11.5 -29.5z" />
    <glyph glyph-name="j" unicode="j" horiz-adv-x="267" 
d="M226 466q-31 -39 -31 -128q0 -20 2 -60.5t2 -59.5l1 -214l7 -9q-3 11 -7 11v-2q0 -103 -57 -163.5t-160 -62.5l-5 13q18 -1 22 -1q67 0 106 82q32 67 32 142v3l-8 370q-23 -19 -45 -26q19 39 141 105zM204 598q0 -18 -11.5 -32.5t-28.5 -14.5q-13 0 -28.5 17t-15.5 30
t14.5 29.5t27.5 16.5q17 0 29.5 -14.5t12.5 -31.5z" />
    <glyph glyph-name="k" unicode="k" horiz-adv-x="458" 
d="M432 443q-3 -5 -40 -5q-26 0 -120 -103q77 -84 104 -128q47 -76 47 -156q0 -140 -96 -269q2 26 23 82q20 53 20 83q0 187 -149 337l-74 -65v-210h53l5 -13q-41 -5 -120 -5h-56l-5 12q13 5 27 5q13 0 27 -4l8 16l-4 545q-11 -5 -33 -26h-21q37 35 150 103
q-2 -11 -16.5 -37.5t-14.5 -41.5v-323l197 201q-16 -3 -31 -3q-18 0 -36 3q10 12 33 12q111 0 122 -10z" />
    <glyph glyph-name="l" unicode="l" horiz-adv-x="261" 
d="M270 6q-8 -1 -16 -1q-116 0 -123 146q-3 62 -3 156v34l2 294l-72 -41l-3 6l179 106l4 -6q-34 -22 -42 -64q-3 -16 -3 -80v-48q0 -7 1 -8l1 1q0 1 -1 1l-2 -287q0 -194 78 -209z" />
    <glyph glyph-name="m" unicode="m" horiz-adv-x="692" 
d="M643 262q0 -72 -31 -152q-33 -87 -84 -127q44 138 44 221q0 80 -21 137q-30 81 -95 81q-21 0 -72 -39q-8 0 -8 -10q0 -21 13.5 -62t13.5 -62q0 -73 -30 -147q-31 -77 -83 -124q18 30 31 99q11 59 11 105q0 78 -21 144q-29 92 -91 92q-15 0 -43 -18.5t-28 -32.5v-360
q7 -6 30 -8l22 -2q0 -8 -152 -10q-13 7 -15 17h15q10 0 26 1l8 11v376q-7 -1 -33 -18h-21q72 60 160 92q-36 -47 -36 -53q0 -4 1 -9q68 54 100 54q64 0 111 -67q59 67 124 67q73 0 116 -64q38 -56 38 -132z" />
    <glyph glyph-name="n" unicode="n" horiz-adv-x="471" 
d="M442 12l-163 6q16 3 49 15v340q0 23 -18.5 46.5t-40.5 23.5q-69 0 -126 -48v-362l26 -8q18 -6 20 -13h-130q-4 0 -25 16h5q18 0 43 -4v401q-38 -17 -52 -17q73 62 150 85q-10 -14 -21 -27q-12 -17 -12 -31l1 -8l75 36q31 15 83 15q83 0 83 -113v-337q9 -3 19 -3
q12 0 24 4q10 -8 10 -17z" />
    <glyph glyph-name="o" unicode="o" horiz-adv-x="472" 
d="M360 168q0 93 -41 176q-50 101 -133 101q-55 0 -85 -47q-26 -40 -26 -97q0 -88 44 -172q53 -101 132 -101q55 0 84 44q25 38 25 96zM426 241q0 -94 -55 -164q-59 -76 -151 -76q-90 0 -147 70q-55 66 -55 157q0 96 55 169q60 80 153 80q88 0 146 -76q54 -69 54 -160z" />
    <glyph glyph-name="p" unicode="p" horiz-adv-x="428" 
d="M423 236q0 -83 -80 -153q-66 -58 -158 -83l-20 7q81 27 129.5 86.5t48.5 142.5q0 93 -54 153t-146 60v-407q0 -232 -91 -250q24 56 24 82v568q-8 8 -32 10q-20 1 -23 14q38 5 76 5q123 0 216 -55q110 -65 110 -180z" />
    <glyph glyph-name="q" unicode="q" horiz-adv-x="438" 
d="M370 -152q0 -27 11 -41q6 -8 34 -27q-45 0 -65 7q-35 12 -43 60q-2 12 -2 80v520h5l-5 1q-5 2 -27 2q-68 0 -119 -39q-54 -41 -64 -107q-2 -13 -2 -71q0 -79 45 -145q34 -50 137 -88q-114 8 -181 62q-76 61 -76 171q0 101 59.5 164t160.5 63h167q-14 -5 -35 -14v-598z
" />
    <glyph glyph-name="r" unicode="r" horiz-adv-x="322" 
d="M321 430q0 -8 -90 -91l-12 6q27 35 27 49q0 34 -33 34q-34 0 -58.5 -29.5t-24.5 -64.5q0 -54 2 -162t2 -162q46 0 54 -3l-1 -7h-8q-30 1 -79 1h-80l-4 13l17 -1l40 1v380q0 11 -7 16q-19 -13 -46 -21q38 31 145 91l-35 -72l3 -16q37 40 62 56q37 24 80 24q10 0 28 -16
t18 -26z" />
    <glyph glyph-name="s" unicode="s" horiz-adv-x="388" 
d="M347 121q0 -54 -37.5 -91.5t-91.5 -37.5q-19 0 -57.5 9t-57.5 9q-33 0 -33 -21q0 -7 5 -21q-46 100 -50 180q10 -59 71 -102q58 -41 120 -41q36 0 63.5 24t27.5 59q0 55 -63 100q-39 26 -114 81q-67 52 -67 112q0 35 27 63t62 28q24 0 71 -15.5t71 -15.5q15 0 22 12
q10 18 17 23q-32 -89 -65 -155q-6 4 -6 13q0 5 2.5 13.5t2.5 13.5q0 40 -31 69t-71 29q-22 0 -40 -12t-18 -33q0 -44 62 -89l116 -84q62 -55 62 -120z" />
    <glyph glyph-name="t" unicode="t" horiz-adv-x="288" 
d="M86 73v364h-56q-23 -1 -18 -1h-3l7 1l-4 -1l-7 26h77l-5 112q-16 -6 -49 -12q49 34 74 48q41 23 82 33q-26 -40 -31 -52q-9 -22 -9 -59v-71q6 -8 23 -8q29 0 48 15q5 4 35 38q-11 -27 -62 -128q-8 36 -9 38q-7 13 -34 16l3 -355q0 -45 98 -54q-15 -24 -71 -24h-32
q-31 0 -44 20q-18 28 -18 34q0 5 1.5 14.5t1.5 14.5v5z" />
    <glyph glyph-name="u" unicode="u" horiz-adv-x="430" 
d="M388 -8q-31 5 -161 5q-88 0 -147 54t-59 141q0 110 106 246q-23 4 -56 4h-23l6 17q29 -7 153 -10q0 -12 -12 -12q-4 0 -11.5 2t-11.5 2q-40 0 -63 -74q-17 -54 -17 -108q0 -79 40 -155q48 -91 120 -91q6 0 13 1v366q0 21 -10 49q-11 32 -25 41h2q23 0 153 -125
q-16 0 -52 30v-357q7 -3 20 -3t31 3z" />
    <glyph glyph-name="v" unicode="v" horiz-adv-x="440" 
d="M450 450l-29 -2q-19 -2 -24 -10q-54 -88 -96 -224l-70 -226h-21l-154 395q-12 -12 -37 -35q9 24 109 128q0 -9 -3.5 -27.5t-3.5 -27.5q0 -36 59 -184l63 -156l136 365h2l-2 -1h-46q-11 0 -21 3l4 1l-3 5h3l13 -1h64q6 0 16.5 1.5t16.5 1.5q5 0 11 -1h9z" />
    <glyph glyph-name="w" unicode="w" horiz-adv-x="621" 
d="M635 453l-3 -8q-19 0 -55 -5l-174 -452h-24l-66 146q-23 -27 -74 -146h-20l-155 400q-16 -12 -48 -30q61 84 125 120q-12 -39 -12 -53q0 -41 127 -353q56 103 77 165l82 -160l132 349v16h-63l-2 8z" />
    <glyph glyph-name="x" unicode="x" horiz-adv-x="416" 
d="M446 0q-27 0 -80.5 -1t-80.5 -1l1 2v6q43 0 48 8l-118 196l-140 -198q11 -2 30 -7l-1 -6h2q-19 1 -93 1v4q8 -1 10 -1q37 0 97 95l84 132l-96 162q-16 -14 -50 -35q20 50 119 110q-7 -11 -7 -26q0 -38 72 -147q33 47 95 144q-6 1 -16 1q-18 0 -32 -2l-5 12q25 4 93 4
q-6 -7 -124 -179l85 -152q61 -109 107 -115v-7z" />
    <glyph glyph-name="y" unicode="y" horiz-adv-x="463" 
d="M330 456q64 -58 64 -86q0 -61 -99 -286l-151 354h52v24h-185v-26h55l181 -432q30 -72 30 -111q0 -42 -32.5 -69t-75.5 -27q-37 0 -61 26.5t-24 63.5q0 28 23.5 52t51.5 24q19 0 39 -10l8 5q-41 72 -53 141h-9q-3 -23 -49 -95.5t-46 -92.5q0 -57 34 -93.5t91 -36.5
q95 0 135 69q17 29 17 53q0 107 -18 148l130 325l45 -30l11 21l-154 107z" />
    <glyph glyph-name="z" unicode="z" horiz-adv-x="423" 
d="M401 147l-114 -190q2 12 7 36q-56 4 -269 4q-5 4 -5 15q0 6 18 120q14 89 112 184q85 82 181 127q-18 3 -52 3q-69 0 -95 -6q-36 -8 -75 -40l-67 -54l89 156q-1 -7 -14 -44h254q-193 -169 -325 -433v-15h140q57 0 122 44q69 45 82 98z" />
    <glyph glyph-name="braceleft" unicode="{" horiz-adv-x="393" 
d="M393 603q-118 -19 -118 -96v-116q0 -67 -42 -102q-31 -26 -122 -43q69 -8 98 -23q41 -21 55 -66q9 -29 9 -88v-17q0 -75 16 -105q25 -48 104 -55v-22q-91 0 -131 33q-44 37 -44 126v14l1 20v33q0 75 -31 101q-22 19 -99 32v36q71 9 98 34q34 31 34 119v36q0 81 25 116
q38 52 147 55v-22z" />
    <glyph glyph-name="bar" unicode="|" horiz-adv-x="105" 
d="M67 -110v737h32v-737h-32z" />
    <glyph glyph-name="braceright" unicode="}" horiz-adv-x="393" 
d="M393 265v-36q-61 -11 -87 -27q-38 -23 -43 -74v-106q0 -152 -174 -152v22q65 6 92.5 36.5t27.5 96.5q0 12 -1 35t-1 35q0 80 40 114q29 25 123 37q-112 21 -139 59q-23 32 -23 151q0 69 -26 101.5t-93 45.5v22q137 -5 163 -90q5 -89 13 -162q10 -91 128 -108z" />
    <glyph glyph-name="asciitilde" unicode="~" horiz-adv-x="316" 
d="M316 662q-18 -86 -72 -86q-16 0 -53.5 18.5t-47.5 18.5q-25 0 -42 -38h-21q19 84 72 84q14 0 51 -18.5t49 -18.5q18 0 28 12q5 6 16 28h20z" />
    <glyph glyph-name="quoteleft" unicode="&#x2018;" 
 />
    <glyph glyph-name="quoteright" unicode="&#x2019;" 
 />
    <glyph glyph-name="quotedblleft" unicode="&#x201c;" 
 />
    <glyph glyph-name="quotedblright" unicode="&#x201d;" 
 />
    <glyph glyph-name="glyph4" 
 />
    <glyph glyph-name="glyph5" 
 />
    <glyph glyph-name="ch736" 
 />
    <glyph glyph-name="ch737" 
 />
    <glyph glyph-name="ch738" 
 />
    <glyph glyph-name="ch739" 
 />
    <glyph glyph-name="ch740" 
 />
    <glyph glyph-name="ch741" 
 />
    <glyph glyph-name="ch742" 
 />
    <glyph glyph-name="ch743" 
 />
    <glyph glyph-name="ch744" 
 />
    <glyph glyph-name="ch745" 
 />
    <glyph glyph-name="ch746" 
 />
    <glyph glyph-name="ch747" 
 />
    <glyph glyph-name="ch748" 
 />
    <glyph glyph-name="ch749" 
 />
    <glyph glyph-name="ch750" 
 />
    <glyph glyph-name="ch751" 
 />
    <glyph glyph-name="ch752" 
 />
    <glyph glyph-name="ch753" 
 />
    <glyph glyph-name="ch754" 
 />
    <glyph glyph-name="ch755" 
 />
    <glyph glyph-name="ch756" 
 />
    <glyph glyph-name="ch757" 
 />
    <glyph glyph-name="ch758" 
 />
    <glyph glyph-name="ch759" 
 />
    <glyph glyph-name="ch760" 
 />
    <glyph glyph-name="ch761" 
 />
    <glyph glyph-name="ch762" 
 />
    <glyph glyph-name="ch763" 
 />
    <glyph glyph-name="ch764" 
 />
    <glyph glyph-name="ch765" 
 />
    <glyph glyph-name="ch766" 
 />
    <glyph glyph-name="ch767" 
 />
    <glyph glyph-name="ch768" 
 />
    <glyph glyph-name="ch769" 
 />
    <glyph glyph-name="ch770" 
 />
    <glyph glyph-name="ch771" 
 />
    <glyph glyph-name="ch772" 
 />
    <glyph glyph-name="ch773" 
 />
    <glyph glyph-name="ch774" 
 />
    <glyph glyph-name="ch775" 
 />
    <glyph glyph-name="ch776" 
 />
    <glyph glyph-name="ch777" 
 />
    <glyph glyph-name="ch778" 
 />
    <glyph glyph-name="ch779" 
 />
    <glyph glyph-name="ch780" 
 />
    <glyph glyph-name="ch781" 
 />
    <glyph glyph-name="ch782" 
 />
    <glyph glyph-name="ch783" 
 />
    <glyph glyph-name="ch784" 
 />
    <glyph glyph-name="ch785" 
 />
    <glyph glyph-name="ch786" 
 />
    <glyph glyph-name="ch787" 
 />
    <glyph glyph-name="ch788" 
 />
    <glyph glyph-name="ch789" 
 />
    <glyph glyph-name="ch790" 
 />
    <glyph glyph-name="ch791" 
 />
    <glyph glyph-name="ch792" 
 />
    <glyph glyph-name="ch793" 
 />
    <glyph glyph-name="ch794" 
 />
    <glyph glyph-name="ch795" 
 />
    <glyph glyph-name="ch796" 
 />
    <glyph glyph-name="ch797" 
 />
    <glyph glyph-name="nonbreakingspace" unicode="&#xa0;" 
 />
  </font>
</defs>
</svg>
